# xmcd
#
# Track frame offsets: 
#        150
#        10950
#        21891
#        32908
#        42222
#        53128
#        63695
#        74258
#        85055
#        97869
#        111603
#        124146
#        136269
#        149394
#        159300
#        169068
#        182572
#        193813
#        206057
#        220456
#        233429
#
# Disc length: 3375 seconds
#
# Revision: 0
# Processed by: cddbd v1.5.2PL0 Copyright (c) Steve Scherf et al.
# Submitted via: ExactAudioCopy v0.99pb1
#
DISCID=2f0d2d15
DTITLE=Screamin' Jay Hawkins - Cowfingers and Mosquito Pie
DYEAR=2008
DGENRE=Blues
TTITLE0=Little Demon
TTITLE1=You Ain't Foolin Me
TTITLE2=I Put A Spell On You
TTITLE3=You Made Me Love You (I Didn'tWant To Do It)
TTITLE4=Yellow Coat
TTITLE5=Hong Kong
TTITLE6=There's Something Wrong With You
TTITLE7=I Love Paris
TTITLE8=Orange Colored Sky
TTITLE9=Alligator Wine
TTITLE10=Darling, Please Forgive Me
TTITLE11=Take Me Back To My Boots
TTITLE12=Temptation
TTITLE13=Frenzy
TTITLE14=Person To Person
TTITLE15=Little Demon (Alternate Take)
TTITLE16=I Put A Spell On You (Alternate Take)
TTITLE17=There's Something Wrong With You (Alternate Take)
TTITLE18=Alligator Wine (Alternate Take)
TTITLE19=If You Are But A Dream (Bonus Track)
TTITLE20=Ol' Man River (Bonus Track)
EXTD=
EXTT0=
EXTT1=
EXTT2=
EXTT3=
EXTT4=
EXTT5=
EXTT6=
EXTT7=
EXTT8=
EXTT9=
EXTT10=
EXTT11=
EXTT12=
EXTT13=
EXTT14=
EXTT15=
EXTT16=
EXTT17=
EXTT18=
EXTT19=
EXTT20=
PLAYORDER=
